<mxfile host="app.diagrams.net" modified="2024-05-22T21:02:00.488Z" agent="Mozilla/5.0 (Windows NT 10.0; Win64; x64) AppleWebKit/537.36 (KHTML, like Gecko) Chrome/125.0.0.0 Safari/537.36" etag="aX4bewcMOP4WM0ssV8VD" version="24.4.6" type="device">
  <diagram name="Страница — 1" id="npSWMun4vfvNMnUd6br3">
    <mxGraphModel dx="268" dy="497" grid="1" gridSize="10" guides="1" tooltips="1" connect="1" arrows="1" fold="1" page="0" pageScale="1" pageWidth="827" pageHeight="1169" math="0" shadow="0">
      <root>
        <mxCell id="0" />
        <mxCell id="1" parent="0" />
        <mxCell id="32VH2vreBvjfU6vgdm-F-4" style="edgeStyle=orthogonalEdgeStyle;rounded=0;orthogonalLoop=1;jettySize=auto;html=1;exitX=0.5;exitY=1;exitDx=0;exitDy=0;entryX=0.5;entryY=0;entryDx=0;entryDy=0;" edge="1" parent="1" source="32VH2vreBvjfU6vgdm-F-1" target="32VH2vreBvjfU6vgdm-F-3">
          <mxGeometry relative="1" as="geometry" />
        </mxCell>
        <mxCell id="32VH2vreBvjfU6vgdm-F-1" value="&lt;font style=&quot;font-size: 14px;&quot;&gt;is_sknf(formula, sknf)&lt;/font&gt;" style="rounded=1;whiteSpace=wrap;html=1;arcSize=50;" vertex="1" parent="1">
          <mxGeometry x="124" y="51" width="167" height="60" as="geometry" />
        </mxCell>
        <mxCell id="32VH2vreBvjfU6vgdm-F-6" style="edgeStyle=orthogonalEdgeStyle;rounded=0;orthogonalLoop=1;jettySize=auto;html=1;exitX=1;exitY=0.5;exitDx=0;exitDy=0;entryX=0;entryY=0.5;entryDx=0;entryDy=0;" edge="1" parent="1" source="32VH2vreBvjfU6vgdm-F-3" target="32VH2vreBvjfU6vgdm-F-5">
          <mxGeometry relative="1" as="geometry" />
        </mxCell>
        <mxCell id="32VH2vreBvjfU6vgdm-F-7" value="Да" style="edgeLabel;html=1;align=center;verticalAlign=middle;resizable=0;points=[];fontSize=14;" vertex="1" connectable="0" parent="32VH2vreBvjfU6vgdm-F-6">
          <mxGeometry x="-0.2806" y="1" relative="1" as="geometry">
            <mxPoint x="11" y="-12" as="offset" />
          </mxGeometry>
        </mxCell>
        <mxCell id="32VH2vreBvjfU6vgdm-F-10" style="edgeStyle=orthogonalEdgeStyle;rounded=0;orthogonalLoop=1;jettySize=auto;html=1;exitX=0.5;exitY=1;exitDx=0;exitDy=0;entryX=0.5;entryY=0;entryDx=0;entryDy=0;" edge="1" parent="1" source="32VH2vreBvjfU6vgdm-F-3" target="32VH2vreBvjfU6vgdm-F-9">
          <mxGeometry relative="1" as="geometry" />
        </mxCell>
        <mxCell id="32VH2vreBvjfU6vgdm-F-13" value="Нет" style="edgeLabel;html=1;align=center;verticalAlign=middle;resizable=0;points=[];fontSize=14;" vertex="1" connectable="0" parent="32VH2vreBvjfU6vgdm-F-10">
          <mxGeometry x="0.2245" y="3" relative="1" as="geometry">
            <mxPoint x="-23" y="-9" as="offset" />
          </mxGeometry>
        </mxCell>
        <mxCell id="32VH2vreBvjfU6vgdm-F-3" value="&lt;font style=&quot;font-size: 14px;&quot;&gt;&quot;&amp;gt;&quot; in formula or &quot;~&quot; in formula&lt;/font&gt;" style="rhombus;whiteSpace=wrap;html=1;" vertex="1" parent="1">
          <mxGeometry x="93" y="145" width="223.5" height="80" as="geometry" />
        </mxCell>
        <mxCell id="32VH2vreBvjfU6vgdm-F-5" value="&lt;font style=&quot;font-size: 14px;&quot;&gt;return False&lt;/font&gt;" style="rounded=1;whiteSpace=wrap;html=1;arcSize=50;" vertex="1" parent="1">
          <mxGeometry x="375" y="155" width="120" height="60" as="geometry" />
        </mxCell>
        <mxCell id="32VH2vreBvjfU6vgdm-F-16" style="edgeStyle=orthogonalEdgeStyle;rounded=0;orthogonalLoop=1;jettySize=auto;html=1;exitX=0.5;exitY=1;exitDx=0;exitDy=0;" edge="1" parent="1" source="32VH2vreBvjfU6vgdm-F-9" target="32VH2vreBvjfU6vgdm-F-15">
          <mxGeometry relative="1" as="geometry" />
        </mxCell>
        <mxCell id="32VH2vreBvjfU6vgdm-F-9" value="&lt;font style=&quot;font-size: 14px;&quot;&gt;log in logs&lt;/font&gt;" style="shape=loopLimit;whiteSpace=wrap;html=1;" vertex="1" parent="1">
          <mxGeometry x="154.75" y="274" width="100" height="54" as="geometry" />
        </mxCell>
        <mxCell id="32VH2vreBvjfU6vgdm-F-12" value="" style="endArrow=classic;html=1;rounded=0;" edge="1" parent="1">
          <mxGeometry width="50" height="50" relative="1" as="geometry">
            <mxPoint x="435" y="215" as="sourcePoint" />
            <mxPoint x="205" y="244" as="targetPoint" />
            <Array as="points">
              <mxPoint x="435" y="244" />
            </Array>
          </mxGeometry>
        </mxCell>
        <mxCell id="32VH2vreBvjfU6vgdm-F-25" style="edgeStyle=orthogonalEdgeStyle;rounded=0;orthogonalLoop=1;jettySize=auto;html=1;exitX=0.5;exitY=0;exitDx=0;exitDy=0;entryX=0.5;entryY=0;entryDx=0;entryDy=0;" edge="1" parent="1" source="32VH2vreBvjfU6vgdm-F-14" target="32VH2vreBvjfU6vgdm-F-23">
          <mxGeometry relative="1" as="geometry" />
        </mxCell>
        <mxCell id="32VH2vreBvjfU6vgdm-F-14" value="&lt;font style=&quot;font-size: 14px;&quot;&gt;log in logs&lt;/font&gt;" style="shape=loopLimit;whiteSpace=wrap;html=1;direction=west;" vertex="1" parent="1">
          <mxGeometry x="154.75" y="488" width="100" height="54" as="geometry" />
        </mxCell>
        <mxCell id="32VH2vreBvjfU6vgdm-F-18" style="edgeStyle=orthogonalEdgeStyle;rounded=0;orthogonalLoop=1;jettySize=auto;html=1;exitX=1;exitY=0.5;exitDx=0;exitDy=0;entryX=0;entryY=0.5;entryDx=0;entryDy=0;" edge="1" parent="1" source="32VH2vreBvjfU6vgdm-F-15" target="32VH2vreBvjfU6vgdm-F-17">
          <mxGeometry relative="1" as="geometry" />
        </mxCell>
        <mxCell id="32VH2vreBvjfU6vgdm-F-19" value="Да" style="edgeLabel;html=1;align=center;verticalAlign=middle;resizable=0;points=[];fontSize=14;" vertex="1" connectable="0" parent="32VH2vreBvjfU6vgdm-F-18">
          <mxGeometry x="-0.0886" relative="1" as="geometry">
            <mxPoint x="2" y="-11" as="offset" />
          </mxGeometry>
        </mxCell>
        <mxCell id="32VH2vreBvjfU6vgdm-F-20" style="edgeStyle=orthogonalEdgeStyle;rounded=0;orthogonalLoop=1;jettySize=auto;html=1;exitX=0.5;exitY=1;exitDx=0;exitDy=0;entryX=0.5;entryY=1;entryDx=0;entryDy=0;" edge="1" parent="1" source="32VH2vreBvjfU6vgdm-F-15" target="32VH2vreBvjfU6vgdm-F-14">
          <mxGeometry relative="1" as="geometry" />
        </mxCell>
        <mxCell id="32VH2vreBvjfU6vgdm-F-22" value="Нет" style="edgeLabel;html=1;align=center;verticalAlign=middle;resizable=0;points=[];fontSize=14;" vertex="1" connectable="0" parent="32VH2vreBvjfU6vgdm-F-20">
          <mxGeometry x="-0.4286" y="-3" relative="1" as="geometry">
            <mxPoint x="-16" y="7" as="offset" />
          </mxGeometry>
        </mxCell>
        <mxCell id="32VH2vreBvjfU6vgdm-F-15" value="&lt;font style=&quot;font-size: 14px;&quot;&gt;log in formula&lt;/font&gt;" style="rhombus;whiteSpace=wrap;html=1;" vertex="1" parent="1">
          <mxGeometry x="110" y="361" width="189.5" height="80" as="geometry" />
        </mxCell>
        <mxCell id="32VH2vreBvjfU6vgdm-F-17" value="&lt;font style=&quot;font-size: 14px;&quot;&gt;return False&lt;/font&gt;" style="rounded=1;whiteSpace=wrap;html=1;arcSize=50;" vertex="1" parent="1">
          <mxGeometry x="375" y="371" width="120" height="60" as="geometry" />
        </mxCell>
        <mxCell id="32VH2vreBvjfU6vgdm-F-21" value="" style="endArrow=classic;html=1;rounded=0;" edge="1" parent="1">
          <mxGeometry width="50" height="50" relative="1" as="geometry">
            <mxPoint x="435" y="431" as="sourcePoint" />
            <mxPoint x="206" y="457" as="targetPoint" />
            <Array as="points">
              <mxPoint x="435" y="457" />
            </Array>
          </mxGeometry>
        </mxCell>
        <mxCell id="32VH2vreBvjfU6vgdm-F-27" style="edgeStyle=orthogonalEdgeStyle;rounded=0;orthogonalLoop=1;jettySize=auto;html=1;exitX=0.5;exitY=1;exitDx=0;exitDy=0;entryX=0.5;entryY=0;entryDx=0;entryDy=0;" edge="1" parent="1" source="32VH2vreBvjfU6vgdm-F-23" target="32VH2vreBvjfU6vgdm-F-24">
          <mxGeometry relative="1" as="geometry" />
        </mxCell>
        <mxCell id="32VH2vreBvjfU6vgdm-F-23" value="&lt;font style=&quot;font-size: 14px;&quot;&gt;formula = formula[1:LAST]&lt;/font&gt;" style="rounded=0;whiteSpace=wrap;html=1;" vertex="1" parent="1">
          <mxGeometry x="119.5" y="569" width="170.5" height="60" as="geometry" />
        </mxCell>
        <mxCell id="32VH2vreBvjfU6vgdm-F-30" style="edgeStyle=orthogonalEdgeStyle;rounded=0;orthogonalLoop=1;jettySize=auto;html=1;exitX=0.5;exitY=1;exitDx=0;exitDy=0;entryX=0.5;entryY=0;entryDx=0;entryDy=0;" edge="1" parent="1" source="32VH2vreBvjfU6vgdm-F-24" target="32VH2vreBvjfU6vgdm-F-28">
          <mxGeometry relative="1" as="geometry" />
        </mxCell>
        <mxCell id="32VH2vreBvjfU6vgdm-F-24" value="&lt;font style=&quot;font-size: 14px;&quot;&gt;sknf = sknf[1:LAST]&lt;/font&gt;" style="rounded=0;whiteSpace=wrap;html=1;" vertex="1" parent="1">
          <mxGeometry x="119.5" y="662" width="170.5" height="60" as="geometry" />
        </mxCell>
        <mxCell id="32VH2vreBvjfU6vgdm-F-31" style="edgeStyle=orthogonalEdgeStyle;rounded=0;orthogonalLoop=1;jettySize=auto;html=1;exitX=0.5;exitY=1;exitDx=0;exitDy=0;entryX=0.5;entryY=0;entryDx=0;entryDy=0;" edge="1" parent="1" source="32VH2vreBvjfU6vgdm-F-28" target="32VH2vreBvjfU6vgdm-F-29">
          <mxGeometry relative="1" as="geometry" />
        </mxCell>
        <mxCell id="32VH2vreBvjfU6vgdm-F-28" value="&lt;font style=&quot;font-size: 14px;&quot;&gt;input_terms = formula.split(&quot;/\\&quot;).sort()&lt;/font&gt;" style="rounded=0;whiteSpace=wrap;html=1;" vertex="1" parent="1">
          <mxGeometry x="119.5" y="756" width="170.5" height="60" as="geometry" />
        </mxCell>
        <mxCell id="32VH2vreBvjfU6vgdm-F-33" style="edgeStyle=orthogonalEdgeStyle;rounded=0;orthogonalLoop=1;jettySize=auto;html=1;exitX=0.5;exitY=1;exitDx=0;exitDy=0;" edge="1" parent="1" source="32VH2vreBvjfU6vgdm-F-29" target="32VH2vreBvjfU6vgdm-F-32">
          <mxGeometry relative="1" as="geometry" />
        </mxCell>
        <mxCell id="32VH2vreBvjfU6vgdm-F-29" value="&lt;font style=&quot;font-size: 14px;&quot;&gt;sknf_terms = sknf.split(&quot;/\\&quot;).sort()&lt;/font&gt;" style="rounded=0;whiteSpace=wrap;html=1;" vertex="1" parent="1">
          <mxGeometry x="119.5" y="848" width="170.5" height="60" as="geometry" />
        </mxCell>
        <mxCell id="32VH2vreBvjfU6vgdm-F-32" value="&lt;font style=&quot;font-size: 14px;&quot;&gt;return input_terms == sknf_terms&lt;/font&gt;" style="rounded=1;whiteSpace=wrap;html=1;arcSize=50;" vertex="1" parent="1">
          <mxGeometry x="119.5" y="940" width="170.5" height="60" as="geometry" />
        </mxCell>
      </root>
    </mxGraphModel>
  </diagram>
</mxfile>
